HIERARCHY
ROOT Hips
{
	OFFSET	0.00	0.00	0.00
	CHANNELS 6 Xposition Yposition Zposition Zrotation Xrotation Yrotation
	JOINT LeftUpLeg
	{
		OFFSET	 0.126116	-0.014019	-0.065224
		CHANNELS 3 Zrotation Xrotation Yrotation
		JOINT LeftLeg
		{
			OFFSET	 0.000000	 0.000000	 0.569914
			CHANNELS 3 Zrotation Xrotation Yrotation
			JOINT LeftFoot
			{
				OFFSET	 0.000000	 0.000000	 0.544423
				CHANNELS 3 Zrotation Xrotation Yrotation
				JOINT LeftToeBase
				{
					OFFSET	 0.000000	 0.000000	 0.207117
					CHANNELS 3 Zrotation Xrotation Yrotation
					End Site
					{
						OFFSET	 0.000000	 0.000000	 0.207117
					}
				}
			}
		}
	}
	JOINT RightUpLeg
	{
		OFFSET	-0.124023	-0.008373	-0.065224
		CHANNELS 3 Zrotation Xrotation Yrotation
		JOINT RightLeg
		{
			OFFSET	 0.000000	 0.000000	 0.570047
			CHANNELS 3 Zrotation Xrotation Yrotation
			JOINT RightFoot
			{
				OFFSET	 0.000000	 0.000000	 0.544354
				CHANNELS 3 Zrotation Xrotation Yrotation
				JOINT RightToeBase
				{
					OFFSET	 0.000000	 0.000000	 0.207540
					CHANNELS 3 Zrotation Xrotation Yrotation
					End Site
					{
						OFFSET	 0.000000	 0.000000	 0.207540
					}
				}
			}
		}
	}
	JOINT Spine
	{
		OFFSET	 0.000184	-0.007763	 0.117403
		CHANNELS 3 Zrotation Xrotation Yrotation
		JOINT Spine1
		{
			OFFSET	 0.000000	 0.000000	 0.137269
			CHANNELS 3 Zrotation Xrotation Yrotation
			JOINT Spine2
			{
				OFFSET	 0.000000	 0.000000	 0.156879
				CHANNELS 3 Zrotation Xrotation Yrotation
				JOINT LeftShoulder
				{
					OFFSET	 0.080501	-0.002496	 0.160144
					CHANNELS 3 Zrotation Xrotation Yrotation
					JOINT LeftArm
					{
						OFFSET	 0.000000	 0.000000	 0.164363
						CHANNELS 3 Zrotation Xrotation Yrotation
						JOINT LeftForeArm
						{
							OFFSET	 0.000000	 0.000000	 0.364576
							CHANNELS 3 Zrotation Xrotation Yrotation
							JOINT LeftHand
							{
								OFFSET	 0.000000	 0.000000	 0.360812
								CHANNELS 3 Zrotation Xrotation Yrotation
								JOINT LeftHandIndex1
								{
									OFFSET	 0.000000	 0.000000	 0.086006
									CHANNELS 3 Zrotation Xrotation Yrotation
									JOINT LeftHandIndex2
									{
										OFFSET	 0.000000	 0.000000	 0.047236
										CHANNELS 3 Zrotation Xrotation Yrotation
										JOINT LeftHandIndex3
										{
											OFFSET	-0.004284	-0.000551	 0.038166
											CHANNELS 3 Zrotation Xrotation Yrotation
											End Site
											{
												OFFSET	-0.004284	-0.000551	 0.038166
											}
										}
									}
								}
							}
						}
					}
				}
				JOINT Neck
				{
					OFFSET	 0.000000	 0.000000	 0.176489
					CHANNELS 3 Zrotation Xrotation Yrotation
					JOINT Head
					{
						OFFSET	 0.000000	-0.001747	 0.077940
						CHANNELS 3 Zrotation Xrotation Yrotation
						End Site
						{
							OFFSET	 0.000000	-0.001747	 0.077940
						}
					}
				}
				JOINT RightShoulder
				{
					OFFSET	-0.080363	 0.000306	 0.159706
					CHANNELS 3 Zrotation Xrotation Yrotation
					JOINT RightArm
					{
						OFFSET	 0.000000	 0.000000	 0.164196
						CHANNELS 3 Zrotation Xrotation Yrotation
						JOINT RightForeArm
						{
							OFFSET	 0.000000	 0.000000	 0.365611
							CHANNELS 3 Zrotation Xrotation Yrotation
							JOINT RightHand
							{
								OFFSET	 0.000000	 0.000000	 0.360648
								CHANNELS 3 Zrotation Xrotation Yrotation
								JOINT RightHandIndex1
								{
									OFFSET	 0.000000	 0.000000	 0.069977
									CHANNELS 3 Zrotation Xrotation Yrotation
									JOINT RightHandIndex2
									{
										OFFSET	 0.000000	 0.000000	 0.052305
										CHANNELS 3 Zrotation Xrotation Yrotation
										JOINT RightHandIndex3
										{
											OFFSET	 0.009002	-0.000782	 0.042196
											CHANNELS 3 Zrotation Xrotation Yrotation
											End Site
											{
												OFFSET	 0.009002	-0.000782	 0.042196
											}
										}
									}
								}
							}
						}
					}
				}
			}
		}
	}
}
MOTION
Frames:    5
Frame Time: 0.03333334
 3.227269	-0.017534	 0.298129	 75.847240	-2.254913	-1.163988	 7.276824	 20.311760	-176.806500	-3.570708	-11.632270	 1.474336	 3.567559	 84.342030	-0.220361	-2.303818	 39.485030	-0.261908	 4.975241	-35.678300	-177.866600	 1.206834	-43.383630	 5.171590	 110.966400	 89.836870	-105.151900	 2.371336	 31.020980	 0.058011	 23.120400	 3.825193	 2.436748	-13.100950	-0.346527	 0.244844	-15.514930	-2.209175	-1.830136	-91.776180	 78.527400	-180.000000	 35.638480	 60.559430	-53.717050	-23.598640	 8.617443	-42.438910	 41.531170	-18.587650	 7.540206	-3.812334	 37.924440	-2.927599	-2.450526	 36.184240	 0.754587	-1.378229	 35.397820	-2.634230	 1.218576	 2.159142	-4.954117	-2.600803	-9.697432	 2.703449	 89.782100	 78.203870	-180.000000	-37.936940	 72.048970	 35.407200	 17.456160	 3.046081	 29.740550	-50.437450	-22.037140	-4.724282	 6.437017	 35.671460	-0.771858	 2.830251	 35.756010	-7.813440	-2.350882	 35.473990	 5.254307
 3.251746	-0.024517	 0.297193	 76.073910	-2.061648	-1.255174	 7.357505	 21.342430	-176.943500	-3.511550	-11.628470	 1.504231	 3.887038	 84.434330	-0.406282	-2.289391	 40.745040	-0.295784	 5.247590	-35.978540	-177.582400	 0.263770	-40.693550	 4.346734	 138.856500	 89.674340	-133.384700	 2.366898	 31.770520	 0.074964	 21.356040	 3.685426	 2.342948	-13.056020	-0.446883	 0.197852	-15.438690	-2.319208	-1.857126	-91.776180	 78.527400	-180.000000	 35.972040	 60.506090	-54.275810	-22.440960	 7.484104	-42.554780	 43.428850	-18.284990	 8.133964	-3.812334	 37.924440	-2.927599	-2.450526	 36.184240	 0.754587	-1.378229	 35.397820	-2.634230	 1.226281	 2.175013	-4.970356	-2.559453	-9.801195	 2.942491	 89.782120	 78.203870	 180.000000	-37.325010	 72.418390	 34.691570	 16.303830	 1.978480	 28.763750	-52.678640	-21.820790	-5.454140	 6.437017	 35.671460	-0.771858	 2.830251	 35.756010	-7.813440	-2.350882	 35.473990	 5.254307
 3.276443	-0.031667	 0.296332	 76.310070	-1.929709	-1.303020	 7.449341	 22.412270	-177.156100	-3.402149	-11.623920	 1.539204	 4.229381	 84.373670	-0.581010	-2.270583	 42.241740	-0.337443	 5.225142	-36.065610	-177.492100	-0.158486	-38.884740	 3.848494	 150.978800	 89.465140	-145.730900	 2.362599	 32.453660	 0.090591	 19.497210	 3.601543	 2.215390	-13.016850	-0.535214	 0.133545	-15.350040	-2.427656	-1.889651	-91.776180	 78.527400	 180.000000	 36.392810	 60.589760	-54.762280	-21.337030	 6.314947	-42.418280	 45.183450	-17.917390	 8.584548	-3.812334	 37.924440	-2.927599	-2.450526	 36.184240	 0.754587	-1.378229	 35.397820	-2.634230	 1.228207	 2.136440	-4.996967	-2.515867	-9.847542	 3.207417	 89.782100	 78.203850	-180.000000	-36.712070	 72.746770	 33.998490	 15.101640	 0.975177	 27.752580	-54.743840	-21.533870	-6.041151	 6.437017	 35.671460	-0.771858	 2.830251	 35.756010	-7.813440	-2.350882	 35.473990	 5.254307
 3.304397	-0.039861	 0.295343	 76.580700	-1.924160	-1.321916	 7.596845	 23.628280	-177.537900	-3.175301	-11.616640	 1.593830	 4.660432	 84.050700	-0.733565	-2.245763	 44.012250	-0.388960	 5.079707	-36.008260	-177.407800	-0.169609	-37.914310	 3.656500	 152.983500	 89.359280	-147.783000	 2.360447	 32.780060	 0.098125	 17.325600	 3.547870	 2.075928	-12.969530	-0.608089	 0.042502	-15.230520	-2.514952	-1.924230	-91.776180	 78.527400	-180.000000	 36.918210	 60.826230	-55.170140	-20.163170	 4.993837	-41.976500	 46.975670	-17.455880	 8.947193	-3.812334	 37.924440	-2.927599	-2.450526	 36.184240	 0.754587	-1.378229	 35.397820	-2.634230	 1.242860	 2.085619	-5.020136	-2.460555	-9.869060	 3.470734	 89.782100	 78.203870	-180.000000	-36.090530	 73.061280	 33.309270	 13.700540	-0.066447	 26.597330	-56.844960	-21.148210	-6.544109	 6.437017	 35.671460	-0.771858	 2.830251	 35.756010	-7.813440	-2.350882	 35.473990	 5.254307
 3.330262	-0.047812	 0.294446	 76.824330	-1.966777	-1.323630	 7.764344	 24.748280	-177.990700	-2.871279	-11.607730	 1.658277	 5.065794	 83.472290	-0.795493	-2.225095	 45.344800	-0.429486	 4.935381	-35.813380	-177.459700	 0.138724	-37.772750	 3.764867	 150.000400	 89.427330	-144.633400	 2.362433	 32.478940	 0.091176	 15.268790	 3.508537	 1.981054	-12.916470	-0.651730	-0.050061	-15.102070	-2.549740	-1.948110	-91.776180	 78.527420	-180.000000	 37.529200	 61.109340	-55.574200	-19.098310	 3.803140	-41.361930	 48.448490	-16.997340	 9.158388	-3.812334	 37.924440	-2.927599	-2.450526	 36.184240	 0.754587	-1.378229	 35.397820	-2.634230	 1.272598	 2.077668	-5.037331	-2.397825	-9.891026	 3.677995	 89.782120	 78.203870	 180.000000	-35.636010	 73.297280	 32.809170	 12.351100	-0.949914	 25.529850	-58.590660	-20.748150	-6.873514	 6.437017	 35.671460	-0.771858	 2.830251	 35.756010	-7.813440	-2.350882	 35.473990	 5.254307
